HIERARCHY
ROOT Hips
{
	OFFSET 0.000000 0.000000 0.000000
	CHANNELS 6 Xposition Yposition Zposition Xrotation Yrotation Zrotation
	JOINT LeftUpLeg_virtual
	{
		OFFSET 0.000000 0.000000 0.000000
		CHANNELS 3 Xrotation Yrotation Zrotation
		JOINT LeftUpLeg
		{
			OFFSET 11.394100 -6.187798 -0.413800
			CHANNELS 3 Xrotation Yrotation Zrotation
			JOINT LeftLeg
			{
				OFFSET 0.430247 -32.302673 3.732800
				CHANNELS 3 Xrotation Yrotation Zrotation
				JOINT LeftFoot
				{
					OFFSET -0.430247 -48.264931 -6.423300
					CHANNELS 3 Xrotation Yrotation Zrotation
					JOINT LeftToeBase
					{
						OFFSET 4.230900 -16.068199 23.438400
						CHANNELS 3 Xrotation Yrotation Zrotation
						JOINT LeftToe_End
						{
							OFFSET 4.510700 0.695400 19.974600
							CHANNELS 3 Xrotation Yrotation Zrotation
							End Site
							{
								OFFSET 0 0 0
							}
						}
					}
				}
			}
		}
	}
	JOINT RightUpLeg_virtual
	{
		OFFSET 0.000000 0.000000 0.000000
		CHANNELS 3 Xrotation Yrotation Zrotation
		JOINT RightUpLeg
		{
			OFFSET -11.333700 -6.187798 -0.413800
			CHANNELS 3 Xrotation Yrotation Zrotation
			JOINT RightLeg
			{
				OFFSET -0.430392 -32.302628 3.733000
				CHANNELS 3 Xrotation Yrotation Zrotation
				JOINT RightFoot
				{
					OFFSET 0.430392 -48.264973 -6.423500
					CHANNELS 3 Xrotation Yrotation Zrotation
					JOINT RightToeBase
					{
						OFFSET -4.230900 -16.068199 23.438400
						CHANNELS 3 Xrotation Yrotation Zrotation
						JOINT RightToe_End
						{
							OFFSET -4.510700 0.695400 19.974600
							CHANNELS 3 Xrotation Yrotation Zrotation
							End Site
							{
								OFFSET 0 0 0
							}
						}
					}
				}
			}
		}
	}
	JOINT Spine_virtual
	{
		OFFSET 0.000000 0.000000 0.000000
		CHANNELS 3 Xrotation Yrotation Zrotation
		JOINT Spine
		{
			OFFSET -0.002400 12.777504 0.315300
			CHANNELS 3 Xrotation Yrotation Zrotation
			JOINT Spine1
			{
				OFFSET -0.002067 5.816869 0.032633
				CHANNELS 3 Xrotation Yrotation Zrotation
				JOINT Spine1_split
				{
					OFFSET -0.002067 5.816869 0.032633
					CHANNELS 3 Xrotation Yrotation Zrotation
					JOINT Spine2
					{
						OFFSET -0.002067 5.816869 0.032633
						CHANNELS 3 Xrotation Yrotation Zrotation
						JOINT Neck_virtual
						{
							OFFSET 0.000000 0.000000 0.000000
							CHANNELS 3 Xrotation Yrotation Zrotation
							JOINT Neck
							{
								OFFSET -0.003700 21.199493 -0.826900
								CHANNELS 3 Xrotation Yrotation Zrotation
								JOINT Head
								{
									OFFSET 0.000000 20.442200 4.834800
									CHANNELS 3 Xrotation Yrotation Zrotation
									JOINT HeadTop_End
									{
										OFFSET 0.000000 34.668396 4.968400
										CHANNELS 3 Xrotation Yrotation Zrotation
										End Site
										{
											OFFSET 0 0 0
										}
									}
								}
							}
						}
						JOINT LeftShoulder_virtual
						{
							OFFSET 0.000000 0.000000 0.000000
							CHANNELS 3 Xrotation Yrotation Zrotation
							JOINT LeftShoulder
							{
								OFFSET 3.288150 8.794197 -1.372250
								CHANNELS 3 Xrotation Yrotation Zrotation
								JOINT LeftShoulder_split
								{
									OFFSET 3.288150 8.794197 -1.372250
									CHANNELS 3 Xrotation Yrotation Zrotation
									JOINT LeftArm
									{
										OFFSET 11.953299 -2.279007 -0.146200
										CHANNELS 3 Xrotation Yrotation Zrotation
										JOINT LeftForeArm
										{
											OFFSET 18.448900 0.000000 0.000000
											CHANNELS 3 Xrotation Yrotation Zrotation
											JOINT LeftHand
											{
												OFFSET 29.527798 0.000000 0.000000
												CHANNELS 3 Xrotation Yrotation Zrotation
												End Site
												{
													OFFSET 0 0 0
												}
											}
										}
									}
								}
							}
						}
						JOINT RightShoulder_virtual
						{
							OFFSET 0.000000 0.000000 0.000000
							CHANNELS 3 Xrotation Yrotation Zrotation
							JOINT RightShoulder
							{
								OFFSET -3.249400 8.794197 -1.372250
								CHANNELS 3 Xrotation Yrotation Zrotation
								JOINT RightShoulder_split
								{
									OFFSET -3.249400 8.794197 -1.372250
									CHANNELS 3 Xrotation Yrotation Zrotation
									JOINT RightArm
									{
										OFFSET -11.953299 -2.279007 -0.146200
										CHANNELS 3 Xrotation Yrotation Zrotation
										JOINT RightForeArm
										{
											OFFSET -18.448900 0.000000 0.000000
											CHANNELS 3 Xrotation Yrotation Zrotation
											JOINT RightHand
											{
												OFFSET -29.527802 0.000000 0.000000
												CHANNELS 3 Xrotation Yrotation Zrotation
												End Site
												{
													OFFSET 0 0 0
												}
											}
										}
									}
								}
							}
						}
					}
				}
			}
		}
	}
}
MOTION
Frames: 10
Frame Time: 0.03333333
-0.182451 101.576691 0.681892 0.000000 0.000000 0.000000 -3.401862 2.283714 2.646712 -2.629663 7.615763 5.119049 15.194418 6.031225 -0.227378 -10.884864 0.720526 -3.991888 2.184940 0.405324 -1.233396 0.000000 0.000000 0.000000 -3.585637 2.667653 2.650698 -4.636628 -9.686462 -11.392459 12.720452 -6.617968 -2.690749 -4.181601 -0.859619 6.306835 -4.375265 -0.597043 -1.333430 0.000000 0.000000 0.000000 -2.397897 2.554707 2.181229 3.470990 -0.467889 -0.096537 1.380932 -0.448049 0.758182 0.923815 0.073491 0.173060 0.000000 0.000000 0.000000 0.941329 -0.064855 0.180517 0.292116 0.608900 -1.024750 -4.517376 -5.010008 -1.656259 0.000000 0.000000 0.000000 1.029296 -0.131401 0.378351 0.949341 -2.201446 -16.080787 -0.144289 -0.454396 -0.611086 4.445250 -8.377305 -37.357446 0.831955 -64.958056 0.868275 0.000000 0.000000 0.000000 1.057799 -0.014018 0.441935 1.184561 4.701429 20.356057 1.410151 1.323763 -1.424476 -2.872993 5.654520 57.679636 0.408414 18.745866 0.416951 0.000000 0.000000 0.000000 
-0.220190 101.573288 0.730457 0.000000 0.000000 0.000000 -3.472032 2.277064 2.688937 -2.575493 7.770004 5.101106 15.135551 5.996845 -0.197983 -10.808717 0.724131 -3.958527 2.200555 0.403474 -1.230796 0.000000 0.000000 0.000000 -3.613324 2.652754 2.682567 -4.610846 -9.647526 -11.414960 12.807498 -6.593272 -2.675016 -4.205486 -0.846896 6.385070 -4.374283 -0.594161 -1.367890 0.000000 0.000000 0.000000 -2.463905 2.615284 2.202126 3.465279 -0.475207 -0.101529 1.360200 -0.433426 0.782342 0.981107 -0.005473 0.203460 0.000000 0.000000 0.000000 0.974152 -0.059264 0.220178 0.261948 0.700156 -1.159840 -4.369931 -5.026411 -1.620907 0.000000 0.000000 0.000000 0.979362 -0.111359 0.378384 0.984669 -2.167529 -16.066415 -0.248175 -0.663226 -0.610014 4.550012 -8.388055 -37.360814 0.842491 -64.897097 0.880154 0.000000 0.000000 0.000000 1.064292 0.003416 0.472863 1.224652 4.505662 20.227790 1.041572 1.150303 -1.355831 -2.960168 5.917381 57.345387 0.477605 18.251399 0.471378 0.000000 0.000000 0.000000 
-0.233113 101.574593 0.780186 0.000000 0.000000 0.000000 -3.527089 2.424789 2.763450 -2.479312 7.908545 5.013376 14.975321 5.956293 -0.158004 -10.709643 0.716077 -3.854191 2.207948 0.402682 -1.231856 0.000000 0.000000 0.000000 -3.661051 2.771646 2.749929 -4.512915 -9.608210 -11.456298 12.911020 -6.633505 -2.664134 -4.245432 -0.874542 6.470456 -4.363773 -0.599675 -1.360965 0.000000 0.000000 0.000000 -2.540099 2.759437 2.251188 3.428935 -0.479242 -0.114234 1.330946 -0.423023 0.794128 0.965920 -0.023481 0.230871 0.000000 0.000000 0.000000 0.985834 -0.061520 0.248668 0.275820 0.887852 -1.263690 -4.042213 -4.928796 -1.548454 0.000000 0.000000 0.000000 0.943489 -0.092474 0.362851 1.032095 -2.102214 -16.011314 -0.301661 -0.836457 -0.665093 4.628760 -8.372247 -37.402714 0.884940 -64.857871 0.954442 0.000000 0.000000 0.000000 1.074119 0.015309 0.486269 1.300039 4.343197 19.861282 0.730017 1.086758 -1.263222 -3.167771 6.121050 57.238922 0.533998 17.688974 0.505772 0.000000 0.000000 0.000000 
-0.216487 101.572289 0.831749 0.000000 0.000000 0.000000 -3.576441 2.695055 2.851072 -2.367751 8.016147 4.871628 14.775905 5.892531 -0.110412 -10.615209 0.696969 -3.698033 2.212130 0.403024 -1.237958 0.000000 0.000000 0.000000 -3.724403 3.009192 2.835832 -4.351925 -9.579411 -11.511336 13.003602 -6.739781 -2.660627 -4.305297 -0.931320 6.563299 -4.350871 -0.607843 -1.327085 0.000000 0.000000 0.000000 -2.626003 2.955008 2.317130 3.370380 -0.476624 -0.124755 1.293274 -0.416988 0.792770 0.902226 0.013783 0.238060 0.000000 0.000000 0.000000 0.970880 -0.071175 0.266912 0.330935 1.164827 -1.333814 -3.572140 -4.737147 -1.438528 0.000000 0.000000 0.000000 0.916096 -0.079432 0.338409 1.084462 -2.022010 -15.922858 -0.337394 -0.942488 -0.725124 4.659250 -8.329948 -37.477330 0.948736 -64.841431 1.074716 0.000000 0.000000 0.000000 1.084273 0.022285 0.482129 1.398873 4.220357 19.291623 0.523403 1.078892 -1.181887 -3.393184 6.245577 57.367428 0.569871 17.258589 0.510673 0.000000 0.000000 0.000000 
-0.179511 101.559654 0.870766 0.000000 0.000000 0.000000 -3.624732 3.064155 2.938652 -2.273663 8.082308 4.696831 14.593836 5.793475 -0.057412 -10.554970 0.669032 -3.510226 2.222117 0.405922 -1.254700 0.000000 0.000000 0.000000 -3.796056 3.345260 2.923289 -4.155269 -9.569991 -11.573533 13.075604 -6.903866 -2.660379 -4.388774 -0.989440 6.672560 -4.342116 -0.612298 -1.284088 0.000000 0.000000 0.000000 -2.709635 3.188163 2.387663 3.297257 -0.461956 -0.121874 1.250466 -0.416069 0.778767 0.859351 0.053378 0.230169 0.000000 0.000000 0.000000 0.929627 -0.084586 0.275330 0.408723 1.523734 -1.383162 -3.023216 -4.517414 -1.289321 0.000000 0.000000 0.000000 0.899260 -0.076265 0.312097 1.136368 -1.936201 -15.803644 -0.411676 -0.992551 -0.794735 4.639791 -8.277697 -37.578512 1.013838 -64.846089 1.215809 0.000000 0.000000 0.000000 1.096448 0.022880 0.461665 1.516063 4.139574 18.552039 0.340864 1.042549 -1.119167 -3.450779 6.258545 57.683987 0.586549 17.322543 0.484551 0.000000 0.000000 0.000000 
-0.133482 101.529427 0.895035 0.000000 0.000000 0.000000 -3.679510 3.497830 3.015374 -2.218991 8.098505 4.513631 14.458052 5.654670 -0.002983 -10.541063 0.634737 -3.317770 2.232040 0.412267 -1.282316 0.000000 0.000000 0.000000 -3.885106 3.748172 3.004415 -3.939491 -9.594327 -11.640986 13.115426 -7.109055 -2.662184 -4.495904 -1.016817 6.806256 -4.341889 -0.607374 -1.245176 0.000000 0.000000 0.000000 -2.787912 3.460627 2.461550 3.223335 -0.431111 -0.100228 1.207226 -0.419731 0.756318 0.848352 0.107494 0.227947 0.000000 0.000000 0.000000 0.866319 -0.098459 0.274235 0.490721 1.942434 -1.420094 -2.464606 -4.326989 -1.104760 0.000000 0.000000 0.000000 0.891271 -0.079303 0.290363 1.181831 -1.860797 -15.657480 -0.487630 -1.012967 -0.856956 4.592999 -8.229243 -37.703375 1.067196 -64.880104 1.355860 0.000000 0.000000 0.000000 1.103465 0.016785 0.430413 1.651623 4.082049 17.675247 0.201844 0.966059 -1.056531 -3.176534 6.200032 58.155113 0.595661 18.257459 0.429280 0.000000 0.000000 0.000000 
-0.078878 101.483101 0.909645 0.000000 0.000000 0.000000 -3.740365 3.995440 3.085304 -2.211373 8.064738 4.327412 14.365759 5.486831 0.045345 -10.565873 0.593788 -3.134245 2.221145 0.421625 -1.309816 0.000000 0.000000 0.000000 -3.979281 4.207802 3.074620 -3.715979 -9.679190 -11.715149 13.120941 -7.344227 -2.667030 -4.619180 -0.999258 6.969133 -4.347166 -0.593256 -1.220526 0.000000 0.000000 0.000000 -2.858938 3.768755 2.540734 3.155313 -0.377007 -0.056448 1.162937 -0.424943 0.727260 0.849761 0.144857 0.229779 0.000000 0.000000 0.000000 0.788858 -0.106864 0.262924 0.566019 2.394054 -1.456181 -1.974022 -4.209826 -0.893685 0.000000 0.000000 0.000000 0.891417 -0.086240 0.274996 1.222971 -1.796798 -15.502762 -0.533147 -1.016858 -0.893939 4.547458 -8.174793 -37.856549 1.109317 -64.950133 1.479568 0.000000 0.000000 0.000000 1.101317 0.005137 0.389052 1.804198 4.047142 16.693486 0.124706 0.948823 -1.011776 -2.506664 6.111937 58.711043 0.600888 20.351787 0.357426 0.000000 0.000000 0.000000 
-0.025899 101.429604 0.911682 0.000000 0.000000 0.000000 -3.794069 4.536022 3.156393 -2.241723 7.985408 4.142102 14.310320 5.293956 0.082294 -10.590102 0.542872 -2.966956 2.173674 0.433860 -1.331189 0.000000 0.000000 0.000000 -4.073360 4.716826 3.144739 -3.495156 -9.837504 -11.803190 13.088303 -7.601834 -2.673463 -4.749268 -0.929206 7.155955 -4.360905 -0.572499 -1.211159 0.000000 0.000000 0.000000 -2.914904 4.132809 2.629645 3.100026 -0.295599 0.003847 1.117849 -0.424739 0.693498 0.853900 0.137430 0.261803 0.000000 0.000000 0.000000 0.712163 -0.107017 0.239914 0.632426 2.857330 -1.506393 -1.616431 -4.224396 -0.671220 0.000000 0.000000 0.000000 0.904016 -0.094480 0.264154 1.257697 -1.745103 -15.354902 -0.530827 -0.971500 -0.908565 4.515272 -8.095868 -38.047589 1.149608 -65.061507 1.585208 0.000000 0.000000 0.000000 1.089504 -0.010236 0.342064 1.971331 4.038168 15.653192 0.008205 1.020918 -0.956702 -1.409340 6.082953 59.319667 0.618316 23.616265 0.279091 0.000000 0.000000 0.000000 
0.023809 101.384125 0.892494 0.000000 0.000000 0.000000 -3.826364 5.105764 3.234057 -2.308884 7.868567 3.952612 14.283054 5.090365 0.107537 -10.569428 0.489163 -2.811809 2.107287 0.447725 -1.345499 0.000000 0.000000 0.000000 -4.141298 5.266247 3.224238 -3.293328 -10.077732 -11.917265 13.002857 -7.873656 -2.683842 -4.867746 -0.812721 7.365992 -4.402645 -0.546898 -1.212546 0.000000 0.000000 0.000000 -2.940186 4.573126 2.733203 3.064982 -0.185397 0.079152 1.070267 -0.413451 0.655905 0.857078 0.061680 0.270338 0.000000 0.000000 0.000000 0.650095 -0.096561 0.207415 0.693142 3.312405 -1.563329 -1.403561 -4.402549 -0.453105 0.000000 0.000000 0.000000 0.924725 -0.097384 0.255462 1.282691 -1.720812 -15.227191 -0.466594 -0.880217 -0.897843 4.475655 -7.997375 -38.279300 1.197000 -65.231121 1.673832 0.000000 0.000000 0.000000 1.072963 -0.018927 0.296316 2.138071 4.080265 14.607422 -0.120082 1.226443 -0.906944 0.011273 6.181010 59.902699 0.639837 27.794408 0.204705 0.000000 0.000000 0.000000 
0.068446 101.356064 0.850845 0.000000 0.000000 0.000000 -3.816790 5.718512 3.325626 -2.434108 7.725040 3.746703 14.266949 4.889934 0.124819 -10.490367 0.441529 -2.647787 2.041772 0.460941 -1.351201 0.000000 0.000000 0.000000 -4.158853 5.856728 3.317784 -3.132485 -10.395053 -12.060911 12.868534 -8.156398 -2.696236 -4.970944 -0.670280 7.583770 -4.456801 -0.520444 -1.213857 0.000000 0.000000 0.000000 -2.920599 5.094635 2.853735 3.053677 -0.045622 0.174362 1.022455 -0.387821 0.616722 0.854235 -0.033266 0.279686 0.000000 0.000000 0.000000 0.609632 -0.071429 0.173527 0.743693 3.744397 -1.618570 -1.303499 -4.745767 -0.262222 0.000000 0.000000 0.000000 0.951929 -0.088447 0.246433 1.298023 -1.730801 -15.139138 -0.365002 -0.744250 -0.903131 4.418528 -7.902802 -38.531443 1.255536 -65.452644 1.749883 0.000000 0.000000 0.000000 1.066635 -0.011597 0.255520 2.290810 4.229330 13.601327 -0.289312 1.448584 -0.821132 1.586434 6.444836 60.322052 0.633651 32.526017 0.154658 0.000000 0.000000 0.000000 
